<svg xmlns="http://www.w3.org/2000/svg" viewBox="0 0 1200 450" style="background-color: #1c1c1c; font-family: sans-serif;">
            <!-- Grid & Axes -->
            <rect x="0" y="0" width="1200" height="450" fill="#1c1c1c" />
            <line x1="60" y1="405" x2="1140" y2="405" stroke="#444" stroke-width="3" />
            <line x1="60" y1="45" x2="60" y2="405" stroke="#444" stroke-width="3" />

            <!-- Axis Labels -->
            <text x="60" y="30" fill="#aaa" font-size="18">2293W</text>
            <text x="1140" y="440" fill="#aaa" font-size="18" text-anchor="middle">301m</text>
            <text x="600.0" y="30" fill="#fff" font-size="24" text-anchor="middle" font-weight="bold">Express 20 (302 min, ~1.60 kWh)</text>

            <!-- Envelope Band (Min/Max) -->
            <polygon points="60.0,68.04722809279872 67.24832214765101,62.67314629337557 74.49664429530202,67.19509659715203 81.74496644295301,63.107768646302134 88.99328859060402,329.13369565317345 96.24161073825503,124.85943282076761 103.48993288590603,62.69946921695771 110.73825503355704,62.14285714285717 117.98657718120805,67.64318593906262 125.23489932885906,64.7751839656118 132.48322147651007,62.56433572790462 139.73154362416108,65.67869288276393 146.97986577181206,64.69500690889822 154.2281879194631,64.2598936053788 161.47651006711408,336.60811904889874 168.7248322147651,400.1890950707495 175.9731543624161,82.024030286595 183.22147651006713,386.2949796853717 190.46979865771812,401.1831025082341 197.7181208053691,399.6904864562923 204.96644295302013,401.0973556940374 212.21476510067114,67.67153104880464 219.46308724832213,399.62713600520885 226.71140939597316,397.8028521016146 233.95973154362414,400.84416661901764 241.20805369127518,399.8495029126344 248.45637583892616,403.7672490485401 255.70469798657717,400.57556642585115 262.95302013422815,399.9115847213287 270.2013422818792,401.10313067766566 277.4496644295302,399.5456169269757 284.69798657718115,399.38294954402556 291.9463087248322,400.45507440248906 299.19463087248323,399.38703087811234 306.44295302013427,401.86132599411945 313.69127516778525,403.5177256045662 320.93959731543623,399.1240139310128 328.1879194630872,392.8468839386042 335.4362416107382,360.2809505044038 342.6845637583893,362.76241664213455 349.93288590604027,398.19389890202194 357.18120805369125,404.04739816960284 364.4295302013423,403.8017529016913 371.6778523489933,394.0274308920481 378.92617449664425,378.6783522572565 386.17449664429523,400.8571117760019 393.4228187919463,396.9155950752151 400.6711409395973,397.18530620513366 407.9194630872483,402.0308214989857 415.16778523489927,403.54786296491704 422.41610738255036,386.25580135396274 429.66442953020135,349.15497382236646 436.9127516778523,341.2547797583854 444.16107382550337,342.1222708435046 451.40939597315435,364.59536285839374 458.6577181208053,403.11028972851796 465.90604026845637,404.1840717208229 473.1543624161074,404.26926281369697 480.4026845637584,404.85235302883837 487.65100671140937,404.3563911647708 494.89932885906035,404.3838459480433 502.1476510067114,404.62849290463413 509.39597315436237,404.82189029126613 516.6442953020135,403.5923614202675 523.8926174496644,403.50855109705367 531.1409395973154,404.63263707380145 538.3892617449665,404.78841780457105 545.6375838926174,404.6523465394224 552.8859060402685,402.55097321005854 560.1342281879195,401.7314879992771 567.3825503355705,404.47313767057295 574.6308724832215,404.4328021144321 581.8791946308725,404.2609053322645 589.1275167785235,404.0890085500969 596.3758389261744,403.91711176792927 603.6241610738255,403.7452149857616 610.8724832214764,403.573318203594 618.1208053691274,403.4014214214264 625.3691275167786,403.2295246392588 632.6174496644295,403.0576278570912 639.8657718120805,402.8857310749235 647.1140939597316,402.7138342927559 654.3624161073825,402.5419375105883 661.6107382550335,400.8987112123324 668.8590604026846,375.1162907830215 676.1073825503356,335.3860566326654 683.3557046979867,328.98428179359485 690.6040268456376,365.97213485109035 697.8523489932885,403.5218341551557 705.1006711409395,404.2747706286973 712.3489932885905,404.2829505047242 719.5973154362415,404.3563911647708 726.8456375838927,404.461235454911 734.0939597315436,210.2120217479117 741.3422818791946,62.74585456611055 748.5906040268457,264.7361030380072 755.8389261744966,195.33292251266317 763.0872483221476,267.24440570106776 770.3355704697985,394.56410450735865 777.5838926174497,393.8210430589943 784.8322147651007,394.6901446587195 792.0805369127517,170.45080898387963 799.3288590604027,293.0777845543694 806.5771812080537,404.72593307449176 813.8255033557047,401.6490922318489 821.0738255033557,401.48590725810647 828.3221476510067,403.83029195096486 835.5704697986577,401.8604834238691 842.8187919463087,396.1026154846314 850.0671140939596,394.90602402764614 857.3154362416107,400.8572250970738 864.5637583892617,403.97135561188605 871.8120805369127,402.3074548698749 879.0604026845638,403.87782996291 886.3087248322148,403.6439500379897 893.5570469798657,404.2159957128916 900.8053691275168,404.39640153100993 908.0536912751678,404.38997855846725 915.3020134228187,404.5249547260521 922.5503355704699,404.53085272308147 929.7986577181207,396.1657409145164 937.0469798657717,353.92181927211914 944.2953020134228,323.2283127760983 951.5436241610737,328.5018537412485 958.7919463087247,397.96028403072023 966.0402684563758,402.5356769228334 973.2885906040268,397.99083745238465 980.5369127516778,404.25174757439004 987.7852348993289,404.8685910413991 995.0335570469798,404.35860869094506 1002.2818791946308,404.6297504416698 1009.5302013422818,404.9534205357254 1016.7785234899328,404.9678989250726 1024.0268456375838,404.9538038494394 1031.2751677852348,404.9675156113586 1038.5234899328857,404.95597371864187 1045.771812080537,404.9940322415784 1053.0201342281878,404.9712612235481 1060.268456375839,404.9966335721724 1067.5167785234898,405.0 1074.765100671141,405.0 1082.013422818792,405.0 1089.261744966443,405.0 1096.510067114094,404.9596461853628 1103.758389261745,404.9977047082994 1111.0067114093958,405.0 1118.255033557047,404.96521572907454 1125.503355704698,404.96148241872334 1132.7516778523488,404.99954094165986 1140.0,405.0 1140.0,405.0 1132.7516778523488,404.99954094165986 1125.503355704698,404.96148241872334 1118.255033557047,404.96521572907454 1111.0067114093958,405.0 1103.758389261745,404.9977047082994 1096.510067114094,404.9596461853628 1089.261744966443,405.0 1082.013422818792,405.0 1074.765100671141,405.0 1067.5167785234898,405.0 1060.268456375839,404.9966335721724 1053.0201342281878,404.9712612235481 1045.771812080537,404.9940322415784 1038.5234899328857,404.95597371864187 1031.2751677852348,404.9675156113586 1024.0268456375838,404.9538038494394 1016.7785234899328,404.9678989250726 1009.5302013422818,404.9534205357254 1002.2818791946308,404.6297504416698 995.0335570469798,404.35860869094506 987.7852348993289,404.8685910413991 980.5369127516778,404.25174757439004 973.2885906040268,397.99083745238465 966.0402684563758,402.5356769228334 958.7919463087247,397.96028403072023 951.5436241610737,328.5018537412485 944.2953020134228,323.2283127760983 937.0469798657717,353.92181927211914 929.7986577181207,396.1657409145164 922.5503355704699,404.53085272308147 915.3020134228187,404.5249547260521 908.0536912751678,404.38997855846725 900.8053691275168,404.39640153100993 893.5570469798657,404.2159957128916 886.3087248322148,403.6439500379897 879.0604026845638,403.87782996291 871.8120805369127,402.3074548698749 864.5637583892617,403.97135561188605 857.3154362416107,400.8572250970738 850.0671140939596,394.90602402764614 842.8187919463087,396.1026154846314 835.5704697986577,401.8604834238691 828.3221476510067,403.83029195096486 821.0738255033557,401.48590725810647 813.8255033557047,401.6490922318489 806.5771812080537,404.72593307449176 799.3288590604027,293.0777845543694 792.0805369127517,170.45080898387963 784.8322147651007,394.6901446587195 777.5838926174497,393.8210430589943 770.3355704697985,394.56410450735865 763.0872483221476,267.24440570106776 755.8389261744966,195.33292251266317 748.5906040268457,264.7361030380072 741.3422818791946,62.74585456611055 734.0939597315436,210.2120217479117 726.8456375838927,404.461235454911 719.5973154362415,404.3563911647708 712.3489932885905,404.2829505047242 705.1006711409395,404.2747706286973 697.8523489932885,403.5218341551557 690.6040268456376,365.97213485109035 683.3557046979867,328.98428179359485 676.1073825503356,335.3860566326654 668.8590604026846,375.1162907830215 661.6107382550335,400.8987112123324 654.3624161073825,402.5419375105883 647.1140939597316,402.7138342927559 639.8657718120805,402.8857310749235 632.6174496644295,403.0576278570912 625.3691275167786,403.2295246392588 618.1208053691274,403.4014214214264 610.8724832214764,403.573318203594 603.6241610738255,403.7452149857616 596.3758389261744,403.91711176792927 589.1275167785235,404.0890085500969 581.8791946308725,404.2609053322645 574.6308724832215,404.4328021144321 567.3825503355705,404.47313767057295 560.1342281879195,401.7314879992771 552.8859060402685,402.55097321005854 545.6375838926174,404.6523465394224 538.3892617449665,404.78841780457105 531.1409395973154,404.63263707380145 523.8926174496644,403.50855109705367 516.6442953020135,403.5923614202675 509.39597315436237,404.82189029126613 502.1476510067114,404.62849290463413 494.89932885906035,404.3838459480433 487.65100671140937,404.3563911647708 480.4026845637584,404.85235302883837 473.1543624161074,404.26926281369697 465.90604026845637,404.1840717208229 458.6577181208053,403.11028972851796 451.40939597315435,364.59536285839374 444.16107382550337,342.1222708435046 436.9127516778523,341.2547797583854 429.66442953020135,349.15497382236646 422.41610738255036,386.25580135396274 415.16778523489927,403.54786296491704 407.9194630872483,402.0308214989857 400.6711409395973,397.18530620513366 393.4228187919463,396.9155950752151 386.17449664429523,400.8571117760019 378.92617449664425,378.6783522572565 371.6778523489933,394.0274308920481 364.4295302013423,403.8017529016913 357.18120805369125,404.04739816960284 349.93288590604027,398.19389890202194 342.6845637583893,362.76241664213455 335.4362416107382,360.2809505044038 328.1879194630872,392.8468839386042 320.93959731543623,399.1240139310128 313.69127516778525,403.5177256045662 306.44295302013427,401.86132599411945 299.19463087248323,399.38703087811234 291.9463087248322,400.45507440248906 284.69798657718115,399.38294954402556 277.4496644295302,399.5456169269757 270.2013422818792,401.10313067766566 262.95302013422815,399.9115847213287 255.70469798657717,400.57556642585115 248.45637583892616,403.7672490485401 241.20805369127518,399.8495029126344 233.95973154362414,400.84416661901764 226.71140939597316,397.8028521016146 219.46308724832213,399.62713600520885 212.21476510067114,67.67153104880464 204.96644295302013,401.0973556940374 197.7181208053691,399.6904864562923 190.46979865771812,401.1831025082341 183.22147651006713,386.2949796853717 175.9731543624161,82.024030286595 168.7248322147651,400.1890950707495 161.47651006711408,336.60811904889874 154.2281879194631,64.2598936053788 146.97986577181206,64.69500690889822 139.73154362416108,65.67869288276393 132.48322147651007,62.56433572790462 125.23489932885906,64.7751839656118 117.98657718120805,67.64318593906262 110.73825503355704,62.14285714285717 103.48993288590603,62.69946921695771 96.24161073825503,124.85943282076761 88.99328859060402,329.13369565317345 81.74496644295301,63.107768646302134 74.49664429530202,67.19509659715203 67.24832214765101,62.67314629337557 60.0,68.04722809279872" fill="#3498db" fill-opacity="0.3" stroke="none" />

            <!-- Average Line -->
            <polyline points="60.0,68.04722809279872 67.24832214765101,62.67314629337557 74.49664429530202,67.19509659715203 81.74496644295301,63.107768646302134 88.99328859060402,329.13369565317345 96.24161073825503,124.85943282076761 103.48993288590603,62.69946921695771 110.73825503355704,62.14285714285717 117.98657718120805,67.64318593906262 125.23489932885906,64.7751839656118 132.48322147651007,62.56433572790462 139.73154362416108,65.67869288276393 146.97986577181206,64.69500690889822 154.2281879194631,64.2598936053788 161.47651006711408,336.60811904889874 168.7248322147651,400.1890950707495 175.9731543624161,82.024030286595 183.22147651006713,386.2949796853717 190.46979865771812,401.1831025082341 197.7181208053691,399.6904864562923 204.96644295302013,401.0973556940374 212.21476510067114,67.67153104880464 219.46308724832213,399.62713600520885 226.71140939597316,397.8028521016146 233.95973154362414,400.84416661901764 241.20805369127518,399.8495029126344 248.45637583892616,403.7672490485401 255.70469798657717,400.57556642585115 262.95302013422815,399.9115847213287 270.2013422818792,401.10313067766566 277.4496644295302,399.5456169269757 284.69798657718115,399.38294954402556 291.9463087248322,400.45507440248906 299.19463087248323,399.38703087811234 306.44295302013427,401.86132599411945 313.69127516778525,403.5177256045662 320.93959731543623,399.1240139310128 328.1879194630872,392.8468839386042 335.4362416107382,360.2809505044038 342.6845637583893,362.76241664213455 349.93288590604027,398.19389890202194 357.18120805369125,404.04739816960284 364.4295302013423,403.8017529016913 371.6778523489933,394.0274308920481 378.92617449664425,378.6783522572565 386.17449664429523,400.8571117760019 393.4228187919463,396.9155950752151 400.6711409395973,397.18530620513366 407.9194630872483,402.0308214989857 415.16778523489927,403.54786296491704 422.41610738255036,386.25580135396274 429.66442953020135,349.15497382236646 436.9127516778523,341.2547797583854 444.16107382550337,342.1222708435046 451.40939597315435,364.59536285839374 458.6577181208053,403.11028972851796 465.90604026845637,404.1840717208229 473.1543624161074,404.26926281369697 480.4026845637584,404.85235302883837 487.65100671140937,404.3563911647708 494.89932885906035,404.3838459480433 502.1476510067114,404.62849290463413 509.39597315436237,404.82189029126613 516.6442953020135,403.5923614202675 523.8926174496644,403.50855109705367 531.1409395973154,404.63263707380145 538.3892617449665,404.78841780457105 545.6375838926174,404.6523465394224 552.8859060402685,402.55097321005854 560.1342281879195,401.7314879992771 567.3825503355705,404.47313767057295 574.6308724832215,404.4328021144321 581.8791946308725,404.2609053322645 589.1275167785235,404.0890085500969 596.3758389261744,403.91711176792927 603.6241610738255,403.7452149857616 610.8724832214764,403.573318203594 618.1208053691274,403.4014214214264 625.3691275167786,403.2295246392588 632.6174496644295,403.0576278570912 639.8657718120805,402.8857310749235 647.1140939597316,402.7138342927559 654.3624161073825,402.5419375105883 661.6107382550335,400.8987112123324 668.8590604026846,375.1162907830215 676.1073825503356,335.3860566326654 683.3557046979867,328.98428179359485 690.6040268456376,365.97213485109035 697.8523489932885,403.5218341551557 705.1006711409395,404.2747706286973 712.3489932885905,404.2829505047242 719.5973154362415,404.3563911647708 726.8456375838927,404.461235454911 734.0939597315436,210.2120217479117 741.3422818791946,62.74585456611055 748.5906040268457,264.7361030380072 755.8389261744966,195.33292251266317 763.0872483221476,267.24440570106776 770.3355704697985,394.56410450735865 777.5838926174497,393.8210430589943 784.8322147651007,394.6901446587195 792.0805369127517,170.45080898387963 799.3288590604027,293.0777845543694 806.5771812080537,404.72593307449176 813.8255033557047,401.6490922318489 821.0738255033557,401.48590725810647 828.3221476510067,403.83029195096486 835.5704697986577,401.8604834238691 842.8187919463087,396.1026154846314 850.0671140939596,394.90602402764614 857.3154362416107,400.8572250970738 864.5637583892617,403.97135561188605 871.8120805369127,402.3074548698749 879.0604026845638,403.87782996291 886.3087248322148,403.6439500379897 893.5570469798657,404.2159957128916 900.8053691275168,404.39640153100993 908.0536912751678,404.38997855846725 915.3020134228187,404.5249547260521 922.5503355704699,404.53085272308147 929.7986577181207,396.1657409145164 937.0469798657717,353.92181927211914 944.2953020134228,323.2283127760983 951.5436241610737,328.5018537412485 958.7919463087247,397.96028403072023 966.0402684563758,402.5356769228334 973.2885906040268,397.99083745238465 980.5369127516778,404.25174757439004 987.7852348993289,404.8685910413991 995.0335570469798,404.35860869094506 1002.2818791946308,404.6297504416698 1009.5302013422818,404.9534205357254 1016.7785234899328,404.9678989250726 1024.0268456375838,404.9538038494394 1031.2751677852348,404.9675156113586 1038.5234899328857,404.95597371864187 1045.771812080537,404.9940322415784 1053.0201342281878,404.9712612235481 1060.268456375839,404.9966335721724 1067.5167785234898,405.0 1074.765100671141,405.0 1082.013422818792,405.0 1089.261744966443,405.0 1096.510067114094,404.9596461853628 1103.758389261745,404.9977047082994 1111.0067114093958,405.0 1118.255033557047,404.96521572907454 1125.503355704698,404.96148241872334 1132.7516778523488,404.99954094165986 1140.0,405.0" fill="none" stroke="#3498db" stroke-width="5" stroke-linecap="round" stroke-linejoin="round" />
            </svg>
