<svg xmlns="http://www.w3.org/2000/svg" viewBox="0 0 1200 450" style="background-color: #1c1c1c; font-family: sans-serif;">
            <!-- Grid & Axes -->
            <rect x="0" y="0" width="1200" height="450" fill="#1c1c1c" />
            <line x1="60" y1="405" x2="1140" y2="405" stroke="#444" stroke-width="3" />
            <line x1="60" y1="45" x2="60" y2="405" stroke="#444" stroke-width="3" />

            <!-- Axis Labels -->
            <text x="60" y="30" fill="#aaa" font-size="18">2304W</text>
            <text x="1140" y="440" fill="#aaa" font-size="18" text-anchor="middle">53m</text>
            <text x="600.0" y="30" fill="#fff" font-size="24" text-anchor="middle" font-weight="bold">Express 20 (53 min, ~0.10 kWh)</text>

            <!-- Envelope Band (Min/Max) -->
            <polygon points="60.0,65.63932792180071 82.04081632653062,65.66532862563287 104.08163265306123,62.14285714285717 126.12244897959184,396.81616555858557 148.16326530612247,401.89658693596687 170.20408163265307,399.13462687585877 192.24489795918367,403.1154383225595 214.28571428571428,405.0 236.3265306122449,405.0 258.36734693877554,405.0 280.40816326530614,405.0 302.44897959183675,405.0 324.48979591836735,405.0 346.53061224489795,405.0 368.57142857142856,405.0 390.6122448979592,405.0 412.6530612244898,405.0 434.6938775510205,405.0 456.734693877551,404.9465849182085 478.7755102040817,404.8257538851691 500.8163265306123,404.7049228521297 522.8571428571429,404.5840918190903 544.8979591836735,404.4632607860509 566.9387755102041,404.3424297530115 588.9795918367347,403.5143212495343 611.0204081632653,402.65869464249124 633.0612244897959,403.58063542458177 655.1020408163266,404.39703728077063 677.1428571428571,404.7607386902192 699.1836734693877,404.89002967936335 721.2244897959184,404.56861913147856 743.265306122449,404.4021955517643 765.3061224489796,404.3937373794515 787.3469387755101,404.60356392808217 809.387755102041,404.93179151036827 831.4285714285714,404.9654000135325 853.469387755102,404.92172372119006 875.5102040816328,404.87804742884765 897.5510204081634,404.8343711365053 919.5918367346939,404.7906948441629 941.6326530612246,404.7470185518205 963.6734693877552,404.7033422594781 985.7142857142857,404.6596659671357 1007.7551020408164,404.61598967479335 1029.795918367347,404.57231338245094 1051.8367346938776,404.52863709010853 1073.8775510204082,404.5097750977475 1095.918367346939,404.5013169254347 1117.9591836734694,404.7309081882271 1140.0,405.0 1140.0,405.0 1117.9591836734694,404.7309081882271 1095.918367346939,404.5013169254347 1073.8775510204082,404.5097750977475 1051.8367346938776,404.52863709010853 1029.795918367347,404.57231338245094 1007.7551020408164,404.61598967479335 985.7142857142857,404.6596659671357 963.6734693877552,404.7033422594781 941.6326530612246,404.7470185518205 919.5918367346939,404.7906948441629 897.5510204081634,404.8343711365053 875.5102040816328,404.87804742884765 853.469387755102,404.92172372119006 831.4285714285714,404.9654000135325 809.387755102041,404.93179151036827 787.3469387755101,404.60356392808217 765.3061224489796,404.3937373794515 743.265306122449,404.4021955517643 721.2244897959184,404.56861913147856 699.1836734693877,404.89002967936335 677.1428571428571,404.7607386902192 655.1020408163266,404.39703728077063 633.0612244897959,403.58063542458177 611.0204081632653,402.65869464249124 588.9795918367347,403.5143212495343 566.9387755102041,404.3424297530115 544.8979591836735,404.4632607860509 522.8571428571429,404.5840918190903 500.8163265306123,404.7049228521297 478.7755102040817,404.8257538851691 456.734693877551,404.9465849182085 434.6938775510205,405.0 412.6530612244898,405.0 390.6122448979592,405.0 368.57142857142856,405.0 346.53061224489795,405.0 324.48979591836735,405.0 302.44897959183675,405.0 280.40816326530614,405.0 258.36734693877554,405.0 236.3265306122449,405.0 214.28571428571428,405.0 192.24489795918367,403.1154383225595 170.20408163265307,399.13462687585877 148.16326530612247,401.89658693596687 126.12244897959184,396.81616555858557 104.08163265306123,62.14285714285717 82.04081632653062,65.66532862563287 60.0,65.63932792180071" fill="#3498db" fill-opacity="0.3" stroke="none" />

            <!-- Average Line -->
            <polyline points="60.0,65.63932792180071 82.04081632653062,65.66532862563287 104.08163265306123,62.14285714285717 126.12244897959184,396.81616555858557 148.16326530612247,401.89658693596687 170.20408163265307,399.13462687585877 192.24489795918367,403.1154383225595 214.28571428571428,405.0 236.3265306122449,405.0 258.36734693877554,405.0 280.40816326530614,405.0 302.44897959183675,405.0 324.48979591836735,405.0 346.53061224489795,405.0 368.57142857142856,405.0 390.6122448979592,405.0 412.6530612244898,405.0 434.6938775510205,405.0 456.734693877551,404.9465849182085 478.7755102040817,404.8257538851691 500.8163265306123,404.7049228521297 522.8571428571429,404.5840918190903 544.8979591836735,404.4632607860509 566.9387755102041,404.3424297530115 588.9795918367347,403.5143212495343 611.0204081632653,402.65869464249124 633.0612244897959,403.58063542458177 655.1020408163266,404.39703728077063 677.1428571428571,404.7607386902192 699.1836734693877,404.89002967936335 721.2244897959184,404.56861913147856 743.265306122449,404.4021955517643 765.3061224489796,404.3937373794515 787.3469387755101,404.60356392808217 809.387755102041,404.93179151036827 831.4285714285714,404.9654000135325 853.469387755102,404.92172372119006 875.5102040816328,404.87804742884765 897.5510204081634,404.8343711365053 919.5918367346939,404.7906948441629 941.6326530612246,404.7470185518205 963.6734693877552,404.7033422594781 985.7142857142857,404.6596659671357 1007.7551020408164,404.61598967479335 1029.795918367347,404.57231338245094 1051.8367346938776,404.52863709010853 1073.8775510204082,404.5097750977475 1095.918367346939,404.5013169254347 1117.9591836734694,404.7309081882271 1140.0,405.0" fill="none" stroke="#3498db" stroke-width="5" stroke-linecap="round" stroke-linejoin="round" />
            </svg>
