<svg xmlns="http://www.w3.org/2000/svg" viewBox="0 0 1200 450" style="background-color: #1c1c1c; font-family: sans-serif;">
            <!-- Grid & Axes -->
            <rect x="0" y="0" width="1200" height="450" fill="#1c1c1c" />
            <line x1="60" y1="405" x2="1140" y2="405" stroke="#444" stroke-width="3" />
            <line x1="60" y1="45" x2="60" y2="405" stroke="#444" stroke-width="3" />

            <!-- Axis Labels -->
            <text x="60" y="30" fill="#aaa" font-size="18">2182W</text>
            <text x="1140" y="440" fill="#aaa" font-size="18" text-anchor="middle">94m</text>
            <text x="600.0" y="30" fill="#fff" font-size="24" text-anchor="middle" font-weight="bold">Eco Express (95 min, ~1.31 kWh)</text>

            <!-- Envelope Band (Min/Max) -->
            <polygon points="60.0,394.4283964379805 82.0408163265306,395.9219794526986 104.08163265306122,399.68172509626544 126.12244897959184,63.347278578021644 148.16326530612244,62.345632968299356 170.20408163265304,62.14285714285717 192.24489795918367,64.41416774446782 214.28571428571428,67.02164427712728 236.32653061224488,63.80911125312275 258.36734693877554,70.2155661763282 280.4081632653061,267.27730764462893 302.44897959183675,71.79284804042561 324.48979591836735,75.08139334386419 346.53061224489795,73.02793729798259 368.57142857142856,74.39033704209942 390.6122448979592,75.64786977062181 412.65306122448976,290.7781210627039 434.6938775510204,400.2643449642505 456.734693877551,404.6471863204867 478.7755102040816,403.5298136912503 500.8163265306122,389.27703544940164 522.8571428571429,72.6476197998602 544.8979591836735,388.90490701991473 566.9387755102041,404.05083375693664 588.9795918367347,275.45283895062107 611.0204081632652,73.8705219369424 633.0612244897959,128.32922494107328 655.1020408163265,79.16168934500547 677.1428571428571,83.19771738030397 699.1836734693877,78.6740200396892 721.2244897959184,79.794162984519 743.265306122449,89.3086423725577 765.3061224489795,88.54542118556026 787.3469387755101,265.9373893489241 809.3877551020408,402.5987037873552 831.4285714285714,403.4742700635117 853.469387755102,403.4437580891793 875.5102040816328,403.67375050200934 897.5510204081633,400.95621101851407 919.5918367346939,126.3404529736386 941.6326530612243,85.02116837573891 963.6734693877551,78.82510500204069 985.7142857142858,79.33176261317351 1007.7551020408163,87.66875977231865 1029.795918367347,85.0702937346453 1051.8367346938776,289.3412541003022 1073.8775510204082,403.741060091607 1095.9183673469388,404.2068147511872 1117.9591836734694,404.64601670915306 1140.0,404.6454004894648 1140.0,405.0 1117.9591836734694,405.0 1095.9183673469388,405.0 1073.8775510204082,405.0 1051.8367346938776,405.0 1029.795918367347,405.0 1007.7551020408163,405.0 985.7142857142858,404.6780796408508 963.6734693877551,404.6183443015089 941.6326530612243,403.9991231923558 919.5918367346939,404.3015905733618 897.5510204081633,404.18680964249427 875.5102040816328,404.31898739539906 853.469387755102,403.9306496340004 831.4285714285714,404.93071230509656 809.3877551020408,404.66370934269884 787.3469387755101,404.6383553341943 765.3061224489795,396.08697038097085 743.265306122449,394.75842625700403 721.2244897959184,146.01303812430626 699.1836734693877,89.53315698131235 677.1428571428571,86.83481707455803 655.1020408163265,306.227033897574 633.0612244897959,174.0704113420575 611.0204081632652,402.75845530562447 588.9795918367347,404.65190010659535 566.9387755102041,404.3813383829174 544.8979591836735,402.6464497341421 522.8571428571429,401.602667824317 500.8163265306122,402.9397338430439 478.7755102040816,404.64423087813117 456.734693877551,404.9586223485147 434.6938775510204,404.6787184810767 412.65306122448976,395.874970613486 390.6122448979592,392.83960565829307 368.57142857142856,156.3537009468114 346.53061224489795,76.91529118431885 324.48979591836735,129.41514763871925 302.44897959183675,394.44013967234895 280.4081632653061,359.9620232003229 258.36734693877554,394.5933200504925 236.32653061224488,220.18672884092092 214.28571428571428,67.67272770570315 192.24489795918367,64.7861341716158 170.20408163265304,66.47237824639649 148.16326530612244,63.240818890239325 126.12244897959184,399.9845012883214 104.08163265306122,403.11739284943457 82.0408163265306,402.68398303865825 60.0,404.6371680524736" fill="#3498db" fill-opacity="0.3" stroke="none" />

            <!-- Average Line -->
            <polyline points="60.0,399.53278224522705 82.0408163265306,399.30298124567844 104.08163265306122,401.39955897285 126.12244897959184,231.6658899331715 148.16326530612244,62.7932259292694 170.20408163265304,64.3076176946268 192.24489795918367,64.60015095804181 214.28571428571428,67.34718599141524 236.32653061224488,141.99792004702186 258.36734693877554,232.40444311341034 280.4081632653061,313.6196654224759 302.44897959183675,233.11649385638728 324.48979591836735,102.24827049129169 346.53061224489795,74.97161424115075 368.57142857142856,115.3720189944554 390.6122448979592,234.2437377144575 412.65306122448976,343.32654583809494 434.6938775510204,402.4715317226636 456.734693877551,404.80290433450074 478.7755102040816,404.08702228469076 500.8163265306122,396.10838464622276 522.8571428571429,237.12514381208862 544.8979591836735,395.7756783770284 566.9387755102041,404.21608606992703 588.9795918367347,340.0523695286082 611.0204081632652,238.31448862128343 633.0612244897959,151.19981814156537 655.1020408163265,192.69436162128977 677.1428571428571,85.016267227431 699.1836734693877,84.10358851050074 721.2244897959184,112.9036005544126 743.265306122449,242.03353431478087 765.3061224489795,242.31619578326556 787.3469387755101,335.2878723415592 809.3877551020408,403.631206565027 831.4285714285714,404.2024911843041 853.469387755102,403.68720386158986 875.5102040816328,403.9963689487042 897.5510204081633,402.57151033050417 919.5918367346939,265.3210217735002 941.6326530612243,244.51014578404732 963.6734693877551,241.72172465177476 985.7142857142858,242.00492112701215 1007.7551020408163,246.33437988615933 1029.795918367347,245.03514686732265 1051.8367346938776,347.1706270501511 1073.8775510204082,404.3705300458035 1095.9183673469388,404.60340737559363 1117.9591836734694,404.82300835457653 1140.0,404.8227002447324" fill="none" stroke="#3498db" stroke-width="5" stroke-linecap="round" stroke-linejoin="round" />
            </svg>
