<svg xmlns="http://www.w3.org/2000/svg" viewBox="0 0 1200 450" style="background-color: #1c1c1c; font-family: sans-serif;">
            <!-- Grid & Axes -->
            <rect x="0" y="0" width="1200" height="450" fill="#1c1c1c" />
            <line x1="60" y1="405" x2="1140" y2="405" stroke="#444" stroke-width="3" />
            <line x1="60" y1="45" x2="60" y2="405" stroke="#444" stroke-width="3" />

            <!-- Axis Labels -->
            <text x="60" y="30" fill="#aaa" font-size="18">2229W</text>
            <text x="1140" y="440" fill="#aaa" font-size="18" text-anchor="middle">137m</text>
            <text x="600.0" y="30" fill="#fff" font-size="24" text-anchor="middle" font-weight="bold">Auto (138 min, ~1.03 kWh)</text>

            <!-- Envelope Band (Min/Max) -->
            <polygon points="60.0,403.23970247541064 76.11940298507463,404.49829890437246 92.23880597014926,71.00965923271264 108.35820895522389,62.14285714285717 124.4776119402985,67.95998658020545 140.59701492537312,65.33649594872657 156.71641791044777,68.03246604807777 172.8358208955224,71.00882071438815 188.955223880597,222.63923807631082 205.07462686567163,394.4705138896124 221.19402985074626,228.5912199470467 237.3134328358209,76.38926020618146 253.43283582089552,78.4061719739978 269.55223880597015,70.79603192589497 285.6716417910448,74.61120785266411 301.7910447761194,282.27651417414154 317.910447761194,400.6197333187317 334.02985074626866,397.74052947337555 350.14925373134326,396.39027887121244 366.2686567164179,396.2574038863913 382.3880597014925,145.27543582418582 398.5074626865672,339.82281733753405 414.6268656716418,394.6919352385504 430.7462686567164,395.05425671802595 446.86567164179104,394.7881056216599 462.9850746268657,109.26037436536387 479.1044776119403,76.6118069998032 495.2238805970149,88.81656539869789 511.3432835820896,80.73347507843454 527.4626865671642,89.01973440638363 543.5820895522388,390.60069589766795 559.7014925373135,396.76973069139154 575.820895522388,397.5817873386481 591.9402985074627,395.086008398979 608.0597014925373,403.8684164905723 624.1791044776119,404.37824594526865 640.2985074626865,402.47621691131866 656.4179104477612,398.7561116217387 672.5373134328358,396.5584290678576 688.6567164179105,396.54440674299605 704.776119402985,400.12959605004306 720.8955223880597,404.10606690048945 737.0149253731344,404.28426117051254 753.1343283582089,402.5078771988519 769.2537313432836,200.97881145400297 785.3731343283581,80.90928673503493 801.4925373134328,83.63821426272534 817.6119402985075,86.05299131486532 833.7313432835821,87.2799465695187 849.8507462686567,88.14082196606421 865.9701492537314,332.84227278618874 882.0895522388059,403.7724929701286 898.2089552238806,404.4869854807611 914.3283582089553,404.8491813616559 930.4477611940298,404.9461410921064 946.5671641791045,404.8083629562591 962.6865671641792,404.67058482041176 978.8059701492538,404.64544796553 994.9253731343283,404.6605557999833 1011.044776119403,404.6635482681916 1027.1641791044776,404.9975465655357 1043.283582089552,404.9105423835609 1059.402985074627,404.8235382015861 1075.5223880597016,404.7365340196113 1091.641791044776,404.7062095248422 1107.7611940298507,404.9507413571081 1123.8805970149253,404.69014607719106 1140.0,404.67363230180973 1140.0,405.0 1123.8805970149253,405.0 1107.7611940298507,405.0 1091.641791044776,405.0 1075.5223880597016,405.0 1059.402985074627,405.0 1043.283582089552,405.0 1027.1641791044776,405.0 1011.044776119403,405.0 994.9253731343283,405.0 978.8059701492538,405.0 962.6865671641792,405.0 946.5671641791045,405.0 930.4477611940298,405.0 914.3283582089553,405.0 898.2089552238806,405.0 882.0895522388059,405.0 865.9701492537314,405.0 849.8507462686567,405.0 833.7313432835821,405.0 817.6119402985075,405.0 801.4925373134328,405.0 785.3731343283581,405.0 769.2537313432836,405.0 753.1343283582089,405.0 737.0149253731344,405.0 720.8955223880597,405.0 704.776119402985,404.8249745708355 688.6567164179105,404.6847469351759 672.5373134328358,404.9917738884104 656.4179104477612,404.7135024949231 640.2985074626865,404.65738193750826 624.1791044776119,404.64775569959596 608.0597014925373,404.59047029266907 591.9402985074627,403.7416626563686 575.820895522388,403.6831594174136 559.7014925373135,403.32097231639483 543.5820895522388,394.95087770403853 527.4626865671642,398.0599757888185 511.3432835820896,395.8229396551666 495.2238805970149,395.1243753566076 479.1044776119403,394.81136775780516 462.9850746268657,395.1883497461386 446.86567164179104,400.86173648325166 430.7462686567164,404.39274917709866 414.6268656716418,404.01868510728053 398.5074626865672,395.3491342727176 382.3880597014925,396.26389543043706 366.2686567164179,401.2142378904191 350.14925373134326,403.9465910071631 334.02985074626866,404.6494606388206 317.910447761194,401.3488517605922 301.7910447761194,393.7572354513316 285.6716417910448,275.76020351591217 269.55223880597015,79.79444485003489 253.43283582089552,215.9789239984733 237.3134328358209,402.60344840268385 221.19402985074626,404.5960692055721 205.07462686567163,402.5908324951887 188.955223880597,400.7557499438649 172.8358208955224,400.2228442540951 156.71641791044777,206.9972161845543 140.59701492537312,76.09522442133152 124.4776119402985,76.10676414992804 108.35820895522389,73.3401261141081 92.23880597014926,398.53653216225155 76.11940298507463,404.6384118985377 60.0,403.67573947691443" fill="#3498db" fill-opacity="0.3" stroke="none" />

            <!-- Average Line -->
            <polyline points="60.0,403.45772097616253 76.11940298507463,404.56835540145505 92.23880597014926,234.7730956974821 108.35820895522389,67.7414916284826 124.4776119402985,72.03337536506677 140.59701492537312,70.7158601850291 156.71641791044777,137.51484111631606 172.8358208955224,235.61583248424165 188.955223880597,311.6974940100879 205.07462686567163,398.53067319240057 221.19402985074626,316.59364457630943 237.3134328358209,239.49635430443266 253.43283582089552,147.19254798623552 269.55223880597015,75.2952383879649 285.6716417910448,175.18570568428817 301.7910447761194,338.01687481273655 317.910447761194,400.98429253966196 334.02985074626866,401.19499505609804 350.14925373134326,400.16843493918776 366.2686567164179,398.73582088840516 382.3880597014925,270.7696656273115 398.5074626865672,367.5859758051258 414.6268656716418,399.3553101729155 430.7462686567164,399.72350294756234 446.86567164179104,397.82492105245575 462.9850746268657,252.22436205575124 479.1044776119403,235.71158737880418 495.2238805970149,241.97047037765273 511.3432835820896,238.27820736680056 527.4626865671642,243.5398550976011 543.5820895522388,392.7757868008532 559.7014925373135,400.0453515038932 575.820895522388,400.63247337803085 591.9402985074627,399.4138355276738 608.0597014925373,404.2294433916207 624.1791044776119,404.51300082243233 640.2985074626865,403.5667994244135 656.4179104477612,401.7348070583309 672.5373134328358,400.775101478134 688.6567164179105,400.614576839086 704.776119402985,402.4772853104393 720.8955223880597,404.55303345024475 737.0149253731344,404.64213058525627 753.1343283582089,403.7539385994259 769.2537313432836,302.9894057270015 785.3731343283581,242.95464336751746 801.4925373134328,244.31910713136267 817.6119402985075,245.52649565743266 833.7313432835821,246.13997328475935 849.8507462686567,246.5704109830321 865.9701492537314,368.9211363930944 882.0895522388059,404.3862464850643 898.2089552238806,404.74349274038053 914.3283582089553,404.924590680828 930.4477611940298,404.9730705460532 946.5671641791045,404.90418147812954 962.6865671641792,404.83529241020585 978.8059701492538,404.822723982765 994.9253731343283,404.83027789999164 1011.044776119403,404.8317741340958 1027.1641791044776,404.99877328276784 1043.283582089552,404.9552711917804 1059.402985074627,404.91176910079304 1075.5223880597016,404.86826700980566 1091.641791044776,404.85310476242114 1107.7611940298507,404.97537067855404 1123.8805970149253,404.84507303859556 1140.0,404.8368161509049" fill="none" stroke="#3498db" stroke-width="5" stroke-linecap="round" stroke-linejoin="round" />
            </svg>
