<svg xmlns="http://www.w3.org/2000/svg" viewBox="0 0 1200 450" style="background-color: #1c1c1c; font-family: sans-serif;">
            <!-- Grid & Axes -->
            <rect x="0" y="0" width="1200" height="450" fill="#1c1c1c" />
            <line x1="60" y1="405" x2="1140" y2="405" stroke="#444" stroke-width="3" />
            <line x1="60" y1="45" x2="60" y2="405" stroke="#444" stroke-width="3" />

            <!-- Axis Labels -->
            <text x="60" y="30" fill="#aaa" font-size="18">2180W</text>
            <text x="1140" y="440" fill="#aaa" font-size="18" text-anchor="middle">98m</text>
            <text x="600.0" y="30" fill="#fff" font-size="24" text-anchor="middle" font-weight="bold">Auto Express (98 min, ~1.43 kWh)</text>

            <!-- Envelope Band (Min/Max) -->
            <polygon points="60.0,404.63672494861936 82.04081632653062,395.5883712904437 104.08163265306123,402.8587567986224 126.12244897959184,401.03233550004853 148.16326530612247,64.98108351976998 170.20408163265307,62.14285714285717 192.24489795918367,64.57852818335516 214.28571428571428,65.77501118464022 236.3265306122449,65.033302717065 258.36734693877554,151.42998458026955 280.40816326530614,394.54755232265495 302.44897959183675,313.60893965978374 324.48979591836735,71.84404943035827 346.53061224489795,73.28477901954778 368.57142857142856,74.65530913112138 390.6122448979592,154.87924243929646 412.6530612244898,395.4384714682219 434.6938775510204,404.640857848226 456.734693877551,404.6491042705233 478.7755102040816,403.8431003873917 500.8163265306123,401.53246437350685 522.8571428571429,402.22247326340425 544.8979591836735,403.902227502047 566.9387755102041,322.24290477040284 588.9795918367347,74.20223695777139 611.0204081632653,150.54033111238996 633.0612244897959,317.13670267277064 655.1020408163266,86.4462144733269 677.1428571428571,89.24928279346722 699.1836734693877,167.3571776811828 721.2244897959184,394.7830660995878 743.265306122449,397.44645999266 765.3061224489796,404.6408620605991 787.3469387755101,404.72269934214415 809.3877551020408,404.99992927927997 831.4285714285716,403.44802135787336 853.469387755102,402.9258005535697 875.5102040816328,320.38598774753643 897.5510204081633,81.93162303951493 919.5918367346939,83.21760315342237 941.6326530612246,77.3239659630757 963.6734693877552,82.38195857451024 985.7142857142858,88.21825787383227 1007.7551020408163,162.73690595159894 1029.795918367347,403.8397866539298 1051.8367346938776,403.8820488310382 1073.8775510204082,404.64086599214727 1095.9183673469388,404.6490961266021 1117.9591836734694,404.7095686372863 1140.0,405.0 1140.0,405.0 1117.9591836734694,404.7095686372863 1095.9183673469388,404.6490961266021 1073.8775510204082,404.64086599214727 1051.8367346938776,403.8820488310382 1029.795918367347,403.8397866539298 1007.7551020408163,162.73690595159894 985.7142857142858,88.21825787383227 963.6734693877552,82.38195857451024 941.6326530612246,77.3239659630757 919.5918367346939,83.21760315342237 897.5510204081633,81.93162303951493 875.5102040816328,320.38598774753643 853.469387755102,402.9258005535697 831.4285714285716,403.44802135787336 809.3877551020408,404.99992927927997 787.3469387755101,404.72269934214415 765.3061224489796,404.6408620605991 743.265306122449,397.44645999266 721.2244897959184,394.7830660995878 699.1836734693877,167.3571776811828 677.1428571428571,89.24928279346722 655.1020408163266,86.4462144733269 633.0612244897959,317.13670267277064 611.0204081632653,150.54033111238996 588.9795918367347,74.20223695777139 566.9387755102041,322.24290477040284 544.8979591836735,403.902227502047 522.8571428571429,402.22247326340425 500.8163265306123,401.53246437350685 478.7755102040816,403.8431003873917 456.734693877551,404.6491042705233 434.6938775510204,404.640857848226 412.6530612244898,395.4384714682219 390.6122448979592,154.87924243929646 368.57142857142856,74.65530913112138 346.53061224489795,73.28477901954778 324.48979591836735,71.84404943035827 302.44897959183675,313.60893965978374 280.40816326530614,394.54755232265495 258.36734693877554,151.42998458026955 236.3265306122449,65.033302717065 214.28571428571428,65.77501118464022 192.24489795918367,64.57852818335516 170.20408163265307,62.14285714285717 148.16326530612247,64.98108351976998 126.12244897959184,401.03233550004853 104.08163265306123,402.8587567986224 82.04081632653062,395.5883712904437 60.0,404.63672494861936" fill="#3498db" fill-opacity="0.3" stroke="none" />

            <!-- Average Line -->
            <polyline points="60.0,404.63672494861936 82.04081632653062,395.5883712904437 104.08163265306123,402.8587567986224 126.12244897959184,401.03233550004853 148.16326530612247,64.98108351976998 170.20408163265307,62.14285714285717 192.24489795918367,64.57852818335516 214.28571428571428,65.77501118464022 236.3265306122449,65.033302717065 258.36734693877554,151.42998458026955 280.40816326530614,394.54755232265495 302.44897959183675,313.60893965978374 324.48979591836735,71.84404943035827 346.53061224489795,73.28477901954778 368.57142857142856,74.65530913112138 390.6122448979592,154.87924243929646 412.6530612244898,395.4384714682219 434.6938775510204,404.640857848226 456.734693877551,404.6491042705233 478.7755102040816,403.8431003873917 500.8163265306123,401.53246437350685 522.8571428571429,402.22247326340425 544.8979591836735,403.902227502047 566.9387755102041,322.24290477040284 588.9795918367347,74.20223695777139 611.0204081632653,150.54033111238996 633.0612244897959,317.13670267277064 655.1020408163266,86.4462144733269 677.1428571428571,89.24928279346722 699.1836734693877,167.3571776811828 721.2244897959184,394.7830660995878 743.265306122449,397.44645999266 765.3061224489796,404.6408620605991 787.3469387755101,404.72269934214415 809.3877551020408,404.99992927927997 831.4285714285716,403.44802135787336 853.469387755102,402.9258005535697 875.5102040816328,320.38598774753643 897.5510204081633,81.93162303951493 919.5918367346939,83.21760315342237 941.6326530612246,77.3239659630757 963.6734693877552,82.38195857451024 985.7142857142858,88.21825787383227 1007.7551020408163,162.73690595159894 1029.795918367347,403.8397866539298 1051.8367346938776,403.8820488310382 1073.8775510204082,404.64086599214727 1095.9183673469388,404.6490961266021 1117.9591836734694,404.7095686372863 1140.0,405.0" fill="none" stroke="#3498db" stroke-width="5" stroke-linecap="round" stroke-linejoin="round" />
            </svg>
