<svg xmlns="http://www.w3.org/2000/svg" viewBox="0 0 1200 450" style="background-color: #1c1c1c; font-family: sans-serif;">
            <!-- Grid & Axes -->
            <rect x="0" y="0" width="1200" height="450" fill="#1c1c1c" />
            <line x1="60" y1="405" x2="1140" y2="405" stroke="#444" stroke-width="3" />
            <line x1="60" y1="45" x2="60" y2="405" stroke="#444" stroke-width="3" />

            <!-- Axis Labels -->
            <text x="60" y="30" fill="#aaa" font-size="18">2196W</text>
            <text x="1140" y="440" fill="#aaa" font-size="18" text-anchor="middle">241m</text>
            <text x="600.0" y="30" fill="#fff" font-size="24" text-anchor="middle" font-weight="bold">Eco (241 min, ~0.82 kWh)</text>

            <!-- Envelope Band (Min/Max) -->
            <polygon points="60.0,404.0331479293361 69.07563025210084,404.5460192762461 78.15126050420167,399.029353092551 87.22689075630252,401.3157427763763 96.30252100840336,401.3292395961236 105.37815126050421,401.36972420275004 114.45378151260505,401.323458589155 123.52941176470588,261.1441657731346 132.60504201680672,62.142857142857224 141.68067226890759,65.86856235951166 150.75630252100842,71.84234484108833 159.83193277310923,72.0336189860792 168.9075630252101,213.0006181830795 177.98319327731093,399.9150382740279 187.05882352941177,397.38881293566885 196.1344537815126,399.05435143335234 205.21008403361344,399.24091965722096 214.28571428571428,397.4290605687486 223.36134453781514,397.800568301353 232.43697478991595,399.90985193869085 241.51260504201682,399.3030687211328 250.58823529411765,397.8882800718641 259.66386554621846,400.3227765651341 268.73949579831935,399.31045300046037 277.8151260504202,397.91935298432026 286.89075630252097,400.4860900119968 295.96638655462186,401.14654595915346 305.0420168067227,401.4803551595951 314.11764705882354,399.3529563925544 323.1932773109244,398.0628615812768 332.2689075630252,399.25807826915707 341.34453781512605,398.59732917681333 350.4201680672269,398.0891222338294 359.49579831932766,398.20504290010604 368.57142857142856,400.99061771264275 377.64705882352945,398.993255588266 386.7226890756303,398.2798848825888 395.79831932773106,401.19539142858576 404.8739495798319,398.8318535367517 413.9495798319328,401.2610187563847 423.02521008403363,399.1727253521861 432.10084033613447,399.49488738887385 441.1764705882353,401.6189329289513 450.2521008403362,399.0110902288687 459.3277310924369,403.1936353571113 468.4033613445378,399.0262376849801 477.47899159663865,398.61180426202924 486.5546218487395,398.65715021170007 495.6302521008403,398.3133108907233 504.7058823529412,401.84626767708187 513.7815126050419,398.7211075932268 522.8571428571429,398.3316236096774 531.9327731092437,400.9567564276125 541.0084033613446,399.0924732564604 550.0840336134454,398.4597401158278 559.1596638655462,401.7218835329818 568.2352941176471,398.70492304590664 577.3109243697479,403.5059275759679 586.3865546218487,404.51357604847686 595.4621848739496,402.88076106379896 604.5378151260504,400.04713742760646 613.6134453781513,401.060019056376 622.6890756302521,401.37884326614835 631.7647058823529,400.8116443852535 640.8403361344538,400.94153079116717 649.9159663865547,401.5243761230332 658.9915966386553,403.68924147541753 668.0672268907563,404.6683917272352 677.1428571428571,403.9337939296292 686.2184873949581,313.99271927830205 695.2941176470589,71.64553308907693 704.3697478991596,74.74674312298043 713.4453781512606,76.69208937874697 722.5210084033613,79.64447176278725 731.5966386554621,82.04991897145732 740.672268907563,196.49566472560727 749.7478991596638,403.5491124186983 758.8235294117646,403.8375025691547 767.8991596638656,404.1984284287724 776.9747899159663,404.64334850052524 786.0504201680673,404.7837727950248 795.1260504201681,405.0 804.2016806722689,405.0 813.2773109243699,404.90002494220664 822.3529411764706,404.6638229002057 831.4285714285714,404.6640559720088 840.5042016806724,404.6643046507864 849.5798319327731,404.66357422142806 858.6554621848738,404.8052275201821 867.7310924369748,404.86603030526504 876.8067226890756,404.66285159555696 885.8823529411765,404.6558662121366 894.9579831932773,404.6558662121366 904.0336134453781,404.8253938235609 913.109243697479,404.82542088579635 922.1848739495799,404.6558662121366 931.2605042016806,404.6558662121366 940.3361344537815,404.6558662121366 949.4117647058824,404.8455601269397 958.4873949579832,404.79150995106437 967.5630252100839,404.6440555194218 976.6386554621848,404.65153045691017 985.7142857142857,404.64357376884107 994.7899159663865,404.6520122074909 1003.8655462184875,404.8696176634519 1012.9411764705882,404.7390622304221 1022.016806722689,404.65273483336193 1031.09243697479,404.88126041865206 1040.1680672268908,405.0 1049.2436974789916,404.7239925568843 1058.3193277310925,404.6558662121366 1067.3949579831933,404.67032653304534 1076.4705882352941,404.6575523391691 1085.546218487395,404.6558662121366 1094.6218487394958,404.6710491589164 1103.6974789915967,404.6259820691577 1112.7731092436975,404.6544209603944 1121.8487394957983,404.62405506683484 1130.9243697478992,404.63923801361466 1140.0,404.6558662121366 1140.0,404.6558662121366 1130.9243697478992,404.63923801361466 1121.8487394957983,404.62405506683484 1112.7731092436975,404.6544209603944 1103.6974789915967,404.6259820691577 1094.6218487394958,404.6710491589164 1085.546218487395,404.6558662121366 1076.4705882352941,404.6575523391691 1067.3949579831933,404.67032653304534 1058.3193277310925,404.6558662121366 1049.2436974789916,404.7239925568843 1040.1680672268908,405.0 1031.09243697479,404.88126041865206 1022.016806722689,404.65273483336193 1012.9411764705882,404.7390622304221 1003.8655462184875,404.8696176634519 994.7899159663865,404.6520122074909 985.7142857142857,404.64357376884107 976.6386554621848,404.65153045691017 967.5630252100839,404.6440555194218 958.4873949579832,404.79150995106437 949.4117647058824,404.8455601269397 940.3361344537815,404.6558662121366 931.2605042016806,404.6558662121366 922.1848739495799,404.6558662121366 913.109243697479,404.82542088579635 904.0336134453781,404.8253938235609 894.9579831932773,404.6558662121366 885.8823529411765,404.6558662121366 876.8067226890756,404.66285159555696 867.7310924369748,404.86603030526504 858.6554621848738,404.8052275201821 849.5798319327731,404.66357422142806 840.5042016806724,404.6643046507864 831.4285714285714,404.6640559720088 822.3529411764706,404.6638229002057 813.2773109243699,404.90002494220664 804.2016806722689,405.0 795.1260504201681,405.0 786.0504201680673,404.7837727950248 776.9747899159663,404.64334850052524 767.8991596638656,404.1984284287724 758.8235294117646,403.8375025691547 749.7478991596638,403.5491124186983 740.672268907563,196.49566472560727 731.5966386554621,82.04991897145732 722.5210084033613,79.64447176278725 713.4453781512606,76.69208937874697 704.3697478991596,74.74674312298043 695.2941176470589,71.64553308907693 686.2184873949581,313.99271927830205 677.1428571428571,403.9337939296292 668.0672268907563,404.6683917272352 658.9915966386553,403.68924147541753 649.9159663865547,401.5243761230332 640.8403361344538,400.94153079116717 631.7647058823529,400.8116443852535 622.6890756302521,401.37884326614835 613.6134453781513,401.060019056376 604.5378151260504,400.04713742760646 595.4621848739496,402.88076106379896 586.3865546218487,404.51357604847686 577.3109243697479,403.5059275759679 568.2352941176471,398.70492304590664 559.1596638655462,401.7218835329818 550.0840336134454,398.4597401158278 541.0084033613446,399.0924732564604 531.9327731092437,400.9567564276125 522.8571428571429,398.3316236096774 513.7815126050419,398.7211075932268 504.7058823529412,401.84626767708187 495.6302521008403,398.3133108907233 486.5546218487395,398.65715021170007 477.47899159663865,398.61180426202924 468.4033613445378,399.0262376849801 459.3277310924369,403.1936353571113 450.2521008403362,399.0110902288687 441.1764705882353,401.6189329289513 432.10084033613447,399.49488738887385 423.02521008403363,399.1727253521861 413.9495798319328,401.2610187563847 404.8739495798319,398.8318535367517 395.79831932773106,401.19539142858576 386.7226890756303,398.2798848825888 377.64705882352945,398.993255588266 368.57142857142856,400.99061771264275 359.49579831932766,398.20504290010604 350.4201680672269,398.0891222338294 341.34453781512605,398.59732917681333 332.2689075630252,399.25807826915707 323.1932773109244,398.0628615812768 314.11764705882354,399.3529563925544 305.0420168067227,401.4803551595951 295.96638655462186,401.14654595915346 286.89075630252097,400.4860900119968 277.8151260504202,397.91935298432026 268.73949579831935,399.31045300046037 259.66386554621846,400.3227765651341 250.58823529411765,397.8882800718641 241.51260504201682,399.3030687211328 232.43697478991595,399.90985193869085 223.36134453781514,397.800568301353 214.28571428571428,397.4290605687486 205.21008403361344,399.24091965722096 196.1344537815126,399.05435143335234 187.05882352941177,397.38881293566885 177.98319327731093,399.9150382740279 168.9075630252101,213.0006181830795 159.83193277310923,72.0336189860792 150.75630252100842,71.84234484108833 141.68067226890759,65.86856235951166 132.60504201680672,62.142857142857224 123.52941176470588,261.1441657731346 114.45378151260505,401.323458589155 105.37815126050421,401.36972420275004 96.30252100840336,401.3292395961236 87.22689075630252,401.3157427763763 78.15126050420167,399.029353092551 69.07563025210084,404.5460192762461 60.0,404.0331479293361" fill="#3498db" fill-opacity="0.3" stroke="none" />

            <!-- Average Line -->
            <polyline points="60.0,404.0331479293361 69.07563025210084,404.5460192762461 78.15126050420167,399.029353092551 87.22689075630252,401.3157427763763 96.30252100840336,401.3292395961236 105.37815126050421,401.36972420275004 114.45378151260505,401.323458589155 123.52941176470588,261.1441657731346 132.60504201680672,62.142857142857224 141.68067226890759,65.86856235951166 150.75630252100842,71.84234484108833 159.83193277310923,72.0336189860792 168.9075630252101,213.0006181830795 177.98319327731093,399.9150382740279 187.05882352941177,397.38881293566885 196.1344537815126,399.05435143335234 205.21008403361344,399.24091965722096 214.28571428571428,397.4290605687486 223.36134453781514,397.800568301353 232.43697478991595,399.90985193869085 241.51260504201682,399.3030687211328 250.58823529411765,397.8882800718641 259.66386554621846,400.3227765651341 268.73949579831935,399.31045300046037 277.8151260504202,397.91935298432026 286.89075630252097,400.4860900119968 295.96638655462186,401.14654595915346 305.0420168067227,401.4803551595951 314.11764705882354,399.3529563925544 323.1932773109244,398.0628615812768 332.2689075630252,399.25807826915707 341.34453781512605,398.59732917681333 350.4201680672269,398.0891222338294 359.49579831932766,398.20504290010604 368.57142857142856,400.99061771264275 377.64705882352945,398.993255588266 386.7226890756303,398.2798848825888 395.79831932773106,401.19539142858576 404.8739495798319,398.8318535367517 413.9495798319328,401.2610187563847 423.02521008403363,399.1727253521861 432.10084033613447,399.49488738887385 441.1764705882353,401.6189329289513 450.2521008403362,399.0110902288687 459.3277310924369,403.1936353571113 468.4033613445378,399.0262376849801 477.47899159663865,398.61180426202924 486.5546218487395,398.65715021170007 495.6302521008403,398.3133108907233 504.7058823529412,401.84626767708187 513.7815126050419,398.7211075932268 522.8571428571429,398.3316236096774 531.9327731092437,400.9567564276125 541.0084033613446,399.0924732564604 550.0840336134454,398.4597401158278 559.1596638655462,401.7218835329818 568.2352941176471,398.70492304590664 577.3109243697479,403.5059275759679 586.3865546218487,404.51357604847686 595.4621848739496,402.88076106379896 604.5378151260504,400.04713742760646 613.6134453781513,401.060019056376 622.6890756302521,401.37884326614835 631.7647058823529,400.8116443852535 640.8403361344538,400.94153079116717 649.9159663865547,401.5243761230332 658.9915966386553,403.68924147541753 668.0672268907563,404.6683917272352 677.1428571428571,403.9337939296292 686.2184873949581,313.99271927830205 695.2941176470589,71.64553308907693 704.3697478991596,74.74674312298043 713.4453781512606,76.69208937874697 722.5210084033613,79.64447176278725 731.5966386554621,82.04991897145732 740.672268907563,196.49566472560727 749.7478991596638,403.5491124186983 758.8235294117646,403.8375025691547 767.8991596638656,404.1984284287724 776.9747899159663,404.64334850052524 786.0504201680673,404.7837727950248 795.1260504201681,405.0 804.2016806722689,405.0 813.2773109243699,404.90002494220664 822.3529411764706,404.6638229002057 831.4285714285714,404.6640559720088 840.5042016806724,404.6643046507864 849.5798319327731,404.66357422142806 858.6554621848738,404.8052275201821 867.7310924369748,404.86603030526504 876.8067226890756,404.66285159555696 885.8823529411765,404.6558662121366 894.9579831932773,404.6558662121366 904.0336134453781,404.8253938235609 913.109243697479,404.82542088579635 922.1848739495799,404.6558662121366 931.2605042016806,404.6558662121366 940.3361344537815,404.6558662121366 949.4117647058824,404.8455601269397 958.4873949579832,404.79150995106437 967.5630252100839,404.6440555194218 976.6386554621848,404.65153045691017 985.7142857142857,404.64357376884107 994.7899159663865,404.6520122074909 1003.8655462184875,404.8696176634519 1012.9411764705882,404.7390622304221 1022.016806722689,404.65273483336193 1031.09243697479,404.88126041865206 1040.1680672268908,405.0 1049.2436974789916,404.7239925568843 1058.3193277310925,404.6558662121366 1067.3949579831933,404.67032653304534 1076.4705882352941,404.6575523391691 1085.546218487395,404.6558662121366 1094.6218487394958,404.6710491589164 1103.6974789915967,404.6259820691577 1112.7731092436975,404.6544209603944 1121.8487394957983,404.62405506683484 1130.9243697478992,404.63923801361466 1140.0,404.6558662121366" fill="none" stroke="#3498db" stroke-width="5" stroke-linecap="round" stroke-linejoin="round" />
            </svg>
