<svg xmlns="http://www.w3.org/2000/svg" viewBox="0 0 1200 450" style="background-color: #1c1c1c; font-family: sans-serif;">
            <!-- Grid & Axes -->
            <rect x="0" y="0" width="1200" height="450" fill="#1c1c1c" />
            <line x1="60" y1="405" x2="1140" y2="405" stroke="#444" stroke-width="3" />
            <line x1="60" y1="45" x2="60" y2="405" stroke="#444" stroke-width="3" />

            <!-- Axis Labels -->
            <text x="60" y="30" fill="#aaa" font-size="18">2174W</text>
            <text x="1140" y="440" fill="#aaa" font-size="18" text-anchor="middle">141m</text>
            <text x="600.0" y="30" fill="#fff" font-size="24" text-anchor="middle" font-weight="bold">Auto (141 min, ~0.97 kWh)</text>

            <!-- Envelope Band (Min/Max) -->
            <polygon points="60.0,403.6424748225095 75.65217391304348,404.6932208025836 91.30434782608695,62.57640403502086 106.95652173913044,64.93606176745686 122.6086956521739,67.91189307692684 138.26086956521738,67.80279801246485 153.91304347826087,194.55942691873827 169.56521739130437,400.07626261936946 185.2173913043478,400.65111249949973 200.86956521739134,402.3936068431685 216.52173913043478,404.5909029817427 232.17391304347828,402.6980107103732 247.82608695652178,226.63857462209333 263.47826086956525,62.14285714285711 279.13043478260875,66.16474161831138 294.7826086956522,260.3981839801211 310.4347826086956,400.5205786258047 326.0869565217391,397.82910318303266 341.7391304347827,396.1773693731563 357.39130434782606,396.04962312686393 373.04347826086956,396.0394692800079 388.69565217391306,395.20214480738775 404.34782608695656,394.4754595564656 420.0,394.8336609530254 435.65217391304355,394.4822839716532 451.30434782608694,394.99324596351005 466.95652173913044,394.50525888963 482.60869565217394,394.93345415335517 498.26086956521743,395.02765315652493 513.9130434782609,398.7305514059067 529.5652173913044,390.80409433602034 545.2173913043478,395.8894701057552 560.8695652173913,398.6345405297019 576.5217391304348,393.2242968445245 592.1739130434783,403.67489539331336 607.8260869565217,404.4584982903121 623.4782608695654,402.8946633159457 639.1304347826087,399.1434282671741 654.7826086956521,396.3652126343702 670.4347826086956,396.3150119412033 686.0869565217391,398.95143436432545 701.7391304347827,403.89218219763734 717.3913043478261,404.3734828162055 733.0434782608695,402.86019634031805 748.6956521739131,250.49733254292633 764.3478260869565,72.3460213859974 780.0,75.0732430704914 795.6521739130435,77.65208104147086 811.3043478260871,79.1525832355378 826.9565217391305,80.01983120521061 842.6086956521739,270.22357136527285 858.2608695652175,403.75753335889436 873.9130434782609,404.2973791392745 889.5652173913043,404.79612526776083 905.2173913043479,404.97271915097707 920.8695652173914,404.83199734852406 936.5217391304349,404.691275546071 952.1739130434783,404.6400902761141 967.8260869565217,404.64841845394756 983.4782608695652,404.6523411130817 999.1304347826087,404.93202361448823 1014.7826086956522,404.92821950249277 1030.4347826086955,404.8393564529737 1046.0869565217392,404.75049340345464 1061.7391304347825,404.6616303539356 1077.391304347826,404.9708352822641 1093.0434782608695,404.7045865180325 1108.6956521739132,404.6695878148947 1124.3478260869565,404.6527212182996 1140.0,405.0 1140.0,405.0 1124.3478260869565,404.6527212182996 1108.6956521739132,404.6695878148947 1093.0434782608695,404.7045865180325 1077.391304347826,404.9708352822641 1061.7391304347825,404.6616303539356 1046.0869565217392,404.75049340345464 1030.4347826086955,404.8393564529737 1014.7826086956522,404.92821950249277 999.1304347826087,404.93202361448823 983.4782608695652,404.6523411130817 967.8260869565217,404.64841845394756 952.1739130434783,404.6400902761141 936.5217391304349,404.691275546071 920.8695652173914,404.83199734852406 905.2173913043479,404.97271915097707 889.5652173913043,404.79612526776083 873.9130434782609,404.2973791392745 858.2608695652175,403.75753335889436 842.6086956521739,270.22357136527285 826.9565217391305,80.01983120521061 811.3043478260871,79.1525832355378 795.6521739130435,77.65208104147086 780.0,75.0732430704914 764.3478260869565,72.3460213859974 748.6956521739131,250.49733254292633 733.0434782608695,402.86019634031805 717.3913043478261,404.3734828162055 701.7391304347827,403.89218219763734 686.0869565217391,398.95143436432545 670.4347826086956,396.3150119412033 654.7826086956521,396.3652126343702 639.1304347826087,399.1434282671741 623.4782608695654,402.8946633159457 607.8260869565217,404.4584982903121 592.1739130434783,403.67489539331336 576.5217391304348,393.2242968445245 560.8695652173913,398.6345405297019 545.2173913043478,395.8894701057552 529.5652173913044,390.80409433602034 513.9130434782609,398.7305514059067 498.26086956521743,395.02765315652493 482.60869565217394,394.93345415335517 466.95652173913044,394.50525888963 451.30434782608694,394.99324596351005 435.65217391304355,394.4822839716532 420.0,394.8336609530254 404.34782608695656,394.4754595564656 388.69565217391306,395.20214480738775 373.04347826086956,396.0394692800079 357.39130434782606,396.04962312686393 341.7391304347827,396.1773693731563 326.0869565217391,397.82910318303266 310.4347826086956,400.5205786258047 294.7826086956522,260.3981839801211 279.13043478260875,66.16474161831138 263.47826086956525,62.14285714285711 247.82608695652178,226.63857462209333 232.17391304347828,402.6980107103732 216.52173913043478,404.5909029817427 200.86956521739134,402.3936068431685 185.2173913043478,400.65111249949973 169.56521739130437,400.07626261936946 153.91304347826087,194.55942691873827 138.26086956521738,67.80279801246485 122.6086956521739,67.91189307692684 106.95652173913044,64.93606176745686 91.30434782608695,62.57640403502086 75.65217391304348,404.6932208025836 60.0,403.6424748225095" fill="#3498db" fill-opacity="0.3" stroke="none" />

            <!-- Average Line -->
            <polyline points="60.0,403.6424748225095 75.65217391304348,404.6932208025836 91.30434782608695,62.57640403502086 106.95652173913044,64.93606176745686 122.6086956521739,67.91189307692684 138.26086956521738,67.80279801246485 153.91304347826087,194.55942691873827 169.56521739130437,400.07626261936946 185.2173913043478,400.65111249949973 200.86956521739134,402.3936068431685 216.52173913043478,404.5909029817427 232.17391304347828,402.6980107103732 247.82608695652178,226.63857462209333 263.47826086956525,62.14285714285711 279.13043478260875,66.16474161831138 294.7826086956522,260.3981839801211 310.4347826086956,400.5205786258047 326.0869565217391,397.82910318303266 341.7391304347827,396.1773693731563 357.39130434782606,396.04962312686393 373.04347826086956,396.0394692800079 388.69565217391306,395.20214480738775 404.34782608695656,394.4754595564656 420.0,394.8336609530254 435.65217391304355,394.4822839716532 451.30434782608694,394.99324596351005 466.95652173913044,394.50525888963 482.60869565217394,394.93345415335517 498.26086956521743,395.02765315652493 513.9130434782609,398.7305514059067 529.5652173913044,390.80409433602034 545.2173913043478,395.8894701057552 560.8695652173913,398.6345405297019 576.5217391304348,393.2242968445245 592.1739130434783,403.67489539331336 607.8260869565217,404.4584982903121 623.4782608695654,402.8946633159457 639.1304347826087,399.1434282671741 654.7826086956521,396.3652126343702 670.4347826086956,396.3150119412033 686.0869565217391,398.95143436432545 701.7391304347827,403.89218219763734 717.3913043478261,404.3734828162055 733.0434782608695,402.86019634031805 748.6956521739131,250.49733254292633 764.3478260869565,72.3460213859974 780.0,75.0732430704914 795.6521739130435,77.65208104147086 811.3043478260871,79.1525832355378 826.9565217391305,80.01983120521061 842.6086956521739,270.22357136527285 858.2608695652175,403.75753335889436 873.9130434782609,404.2973791392745 889.5652173913043,404.79612526776083 905.2173913043479,404.97271915097707 920.8695652173914,404.83199734852406 936.5217391304349,404.691275546071 952.1739130434783,404.6400902761141 967.8260869565217,404.64841845394756 983.4782608695652,404.6523411130817 999.1304347826087,404.93202361448823 1014.7826086956522,404.92821950249277 1030.4347826086955,404.8393564529737 1046.0869565217392,404.75049340345464 1061.7391304347825,404.6616303539356 1077.391304347826,404.9708352822641 1093.0434782608695,404.7045865180325 1108.6956521739132,404.6695878148947 1124.3478260869565,404.6527212182996 1140.0,405.0" fill="none" stroke="#3498db" stroke-width="5" stroke-linecap="round" stroke-linejoin="round" />
            </svg>
